<svg width="10" height="10" viewBox="0 0 10 10" fill="none" xmlns="http://www.w3.org/2000/svg">
<path d="M5 9.16666C7.25875 9.16666 9.16667 7.25875 9.16667 5C9.16667 2.74125 7.25875 0.833328 5 0.833328C2.74125 0.833328 0.833332 2.74125 0.833332 5C0.833332 7.25875 2.74125 9.16666 5 9.16666ZM5 1.66666C6.80708 1.66666 8.33333 3.19291 8.33333 5C8.33333 6.80708 6.80708 8.33333 5 8.33333C3.19292 8.33333 1.66667 6.80708 1.66667 5C1.66667 3.19291 3.19292 1.66666 5 1.66666Z" fill="#888888"/>
<path d="M5 7.08334C5.37542 7.08334 6.07542 7.01334 6.54458 6.54501L5.95542 5.955C5.77083 6.13959 5.41333 6.25001 5 6.25001C4.3225 6.25001 3.75 5.67751 3.75 5.00001C3.75 4.32251 4.3225 3.75001 5 3.75001C5.41375 3.75001 5.77125 3.86042 5.95542 4.04459L6.54458 3.45542C6.07583 2.98667 5.37542 2.91667 5 2.91667C3.85125 2.91667 2.91667 3.85126 2.91667 5.00001C2.91667 6.14875 3.85125 7.08334 5 7.08334Z" fill="#888888"/>
</svg>
